<svg width="77" height="77" viewBox="0 0 77 77" fill="none" xmlns="http://www.w3.org/2000/svg">
<g clip-path="url(#clip0_207_688)">
<path d="M69 0H8C3.58172 0 0 3.58172 0 8V69C0 73.4183 3.58172 77 8 77H69C73.4183 77 77 73.4183 77 69V8C77 3.58172 73.4183 0 69 0Z" fill="#FEC92D"/>
<path d="M46.7353 11.5H46.2353V12V27.2722C46.2353 29.4502 45.4651 31.2508 44.0858 32.6549C42.7108 34.0545 41.0066 34.7652 38.9397 34.7652C36.8742 34.7652 35.1709 34.0555 33.7965 32.6579C32.4649 31.255 31.7164 29.4534 31.7164 27.2722V12V11.5H31.2164H24H23.5V12V27.2722C23.5 31.6768 24.9696 35.4439 27.9378 38.4924L27.9378 38.4925L27.9429 38.4976C29.8587 40.4092 32.0332 41.7311 34.5056 42.4286V50.704C34.5056 52.8925 33.8007 54.6883 32.4313 56.0837C31.7481 56.7558 30.721 57.2881 29.5613 57.6519C28.4057 58.0144 27.1589 58.1969 26.0756 58.1969H25.5756V58.6969V66V66.5H26.0756C31.8362 66.5 35.3719 64.9855 38.4705 61.9072C41.5366 58.8849 43.0841 55.1399 43.0841 50.7278V42.5555C45.6747 41.8808 47.9698 40.5545 49.9846 38.5452L49.9846 38.5452L49.9883 38.5415C53.0036 35.4712 54.5 31.7282 54.5 27.3198V12V11.5H54H46.7595H46.7353Z" fill="#0F172A" stroke="#0F172A"/>
</g>
<defs>
<clipPath id="clip0_207_688">
<rect width="77" height="77" fill="white"/>
</clipPath>
</defs>
</svg>
