<svg width="20" height="21" viewBox="0 0 20 21" fill="none" xmlns="http://www.w3.org/2000/svg">
<g clip-path="url(#clip0_1314_1904)">
<path fill-rule="evenodd" clip-rule="evenodd" d="M17 6.33341L10 2.16675L3 6.33341V14.6668L10 18.8334L17 14.6668V6.33341Z" fill="#636B6B"/>
<path fill-rule="evenodd" clip-rule="evenodd" d="M10 2.16675L3 6.33341V14.6668L10 18.8334L17 14.6668V6.33341L10 2.16675ZM16.5833 6.57029L10 2.65164L3.41667 6.57029V14.4299L10 18.3485L16.5833 14.4299V6.57029Z" fill="#FDE6CA"/>
<path d="M20.0003 9L17.917 9.58333V11.9167C19.1488 11.5718 20.0003 10.449 20.0003 9.16987V9Z" fill="#D1C3AF"/>
<path d="M0 9L2.08333 9.58333V11.9167C0.851554 11.5718 0 10.449 0 9.16987V9Z" fill="#D1C3AF"/>
<path d="M10.0003 14.5C11.8761 14.5 13.0837 13.5595 13.0837 12.2242C13.0837 11.0631 12.052 10.4478 11.2548 10.3665C12.1223 10.2155 12.9664 9.57692 12.9664 8.6016C12.9664 7.31277 11.8409 6.5 10.012 6.5C8.64037 6.5 7.65558 7.0225 7.0225 7.73077L7.85488 8.76415C8.4059 8.24165 9.08587 7.96299 9.83619 7.96299C10.6568 7.96299 11.2899 8.26488 11.2899 8.88026C11.2899 9.4492 10.7155 9.70464 9.84791 9.70464C9.55482 9.70464 9.01553 9.70464 8.87485 9.69303V11.1792C8.99208 11.1676 9.51965 11.156 9.84791 11.156C10.9382 11.156 11.4189 11.4347 11.4189 12.0501C11.4189 12.6306 10.8913 13.037 9.9417 13.037C9.17966 13.037 8.32383 12.7119 7.78454 12.1546L6.91699 13.2576C7.49145 13.9543 8.55831 14.5 10.0003 14.5Z" fill="#FDE6CA"/>
</g>
<defs>
<clipPath id="clip0_1314_1904">
<rect width="20" height="21" fill="white"/>
</clipPath>
</defs>
</svg>
