<svg width="20" height="21" viewBox="0 0 20 21" fill="none" xmlns="http://www.w3.org/2000/svg">
<g clip-path="url(#clip0_1314_1896)">
<path fill-rule="evenodd" clip-rule="evenodd" d="M17 6.33342L10 2.16675L3 6.33342V14.6668L10 18.8334L17 14.6668V6.33342Z" fill="#55626F"/>
<path fill-rule="evenodd" clip-rule="evenodd" d="M10 2.16675L3 6.33342V14.6668L10 18.8334L17 14.6668V6.33342L10 2.16675ZM16.5833 6.5703L10 2.65165L3.41667 6.5703V14.4299L10 18.3485L16.5833 14.4299V6.5703Z" fill="#DEE1EF"/>
<path d="M7.41699 14.2797C7.41699 14.3957 7.51029 14.5 7.63858 14.5H12.3037C12.4204 14.5 12.5253 14.3957 12.5253 14.2797V13.2362C12.5253 13.1203 12.4204 13.0159 12.3037 13.0159H10.2511C10.7992 12.2507 11.7556 11.0101 12.1288 10.3493C12.4087 9.80435 12.5837 9.45652 12.5837 8.84203C12.5837 7.55507 11.604 6.5 9.93617 6.5C8.54829 6.5 7.60359 7.63623 7.60359 7.63623C7.52195 7.72899 7.53362 7.86812 7.61526 7.93768L8.32669 8.65652C8.42 8.74928 8.55995 8.74928 8.65325 8.65652C8.87485 8.41304 9.30638 8.07681 9.78456 8.07681C10.4377 8.07681 10.8109 8.47101 10.8109 8.91159C10.8109 9.23623 10.6593 9.56087 10.5077 9.79275C9.81955 10.8362 8.09344 13.1667 7.41699 14.0478V14.2797Z" fill="#DEE1EF"/>
<path d="M20.0003 7.66675L17.917 8.25009V10.5834C19.1488 10.2385 20.0003 9.11578 20.0003 7.83663V7.66675Z" fill="#B7BDCA"/>
<path d="M20.0003 10.3333L17.917 10.9167V13.25C19.1488 12.9051 20.0003 11.7824 20.0003 10.5032V10.3333Z" fill="#9099A6"/>
<path d="M0 7.66675L2.08333 8.25009V10.5834C0.851554 10.2385 0 9.11578 0 7.83663V7.66675Z" fill="#B7BDCA"/>
<path d="M0 10.3333L2.08333 10.9167V13.25C0.851554 12.9051 0 11.7824 0 10.5032V10.3333Z" fill="#9099A6"/>
</g>
<defs>
<clipPath id="clip0_1314_1896">
<rect width="20" height="21" fill="white"/>
</clipPath>
</defs>
</svg>
