<svg width="20" height="21" viewBox="0 0 20 21" fill="none" xmlns="http://www.w3.org/2000/svg">
<g clip-path="url(#clip0_1314_1886)">
<path fill-rule="evenodd" clip-rule="evenodd" d="M17 6.33342L10 2.16675L3 6.33342V14.6668L10 18.8334L17 14.6668V6.33342Z" fill="#5D6559"/>
<path fill-rule="evenodd" clip-rule="evenodd" d="M10 2.16675L3 6.33342V14.6668L10 18.8334L17 14.6668V6.33342L10 2.16675ZM16.5833 6.5703L10 2.65165L3.41667 6.5703V14.4299L10 18.3485L16.5833 14.4299V6.5703Z" fill="#E9D18C"/>
<path d="M9.25859 14.2765C9.25859 14.3941 9.35274 14.5 9.48219 14.5H10.7885C10.9062 14.5 11.0003 14.3941 11.0003 14.2765V6.72353C11.0003 6.60588 10.9062 6.5 10.7885 6.5H9.70579L7.9876 7.84118C7.95229 7.87647 7.91699 7.97059 7.91699 8.01765V8.75882C7.91699 8.87647 8.01113 8.98235 8.12882 8.98235H9.25859V14.2765Z" fill="#E9D18C"/>
<path d="M20.0003 5.66675L17.917 6.25009V8.58342C19.1488 8.23852 20.0003 7.11578 20.0003 5.83663V5.66675Z" fill="#CBC9B5"/>
<path d="M20.0003 8.33325L17.917 8.91659V11.2499C19.1488 10.905 20.0003 9.78228 20.0003 8.50313V8.33325Z" fill="#A1A498"/>
<path d="M20.0003 11L17.917 11.5833V13.9167C19.1488 13.5718 20.0003 12.449 20.0003 11.1699V11Z" fill="#5D6559"/>
<path d="M0 5.66675L2.08333 6.25009V8.58342C0.851554 8.23852 0 7.11578 0 5.83663V5.66675Z" fill="#CBC9B5"/>
<path d="M0 8.33325L2.08333 8.91659V11.2499C0.851554 10.905 0 9.78228 0 8.50313V8.33325Z" fill="#A1A498"/>
<path d="M0 11L2.08333 11.5833V13.9167C0.851554 13.5718 0 12.449 0 11.1699V11Z" fill="#5D6559"/>
</g>
<defs>
<clipPath id="clip0_1314_1886">
<rect width="20" height="21" fill="white"/>
</clipPath>
</defs>
</svg>
