<svg version="1.1" id="Layer_1" xmlns="http://www.w3.org/2000/svg" xmlns:xlink="http://www.w3.org/1999/xlink" x="0px" y="0px" viewBox="0 0 1907.8 576.2" xml:space="preserve" class="svelte-sufntd"><style type="text/css">.st0 {
        fill: #ffffff;
      }</style><g><rect x="670.9" class="st0" width="6" height="576.2"></rect><path class="st0" d="M858.8,168.5c-0.2-75,47.7-116.6,135.8-116.9c63.5-0.2,74.8,41.2,74.8,56.3c0.1,28.9-40.8,59.5-40.8,59.5
		s2.2,18,37.3,17.8c35.1-0.1,69.2-23.3,69-81.2c-0.2-66.5-69.9-97-138.8-96.7c-57.7,0.2-210.5,8.3-209.9,160.1
		c0.5,134.8,254.7,146.7,255,233c0.4,93.7-104.9,119-140.3,119.1s-50.1-25.3-50.1-39.3c-0.3-75.9,75.2-97.1,75.2-97.1
		c0-5.6-4.4-30.9-33.7-30.8c-75.3,0.3-105.4,65.1-105.1,128.4c0.2,53.8,38.2,87.4,95.7,87.2c109.8-0.4,233.6-54.1,233.2-173.1
		C1115.6,283.6,859.1,254.5,858.8,168.5z"></path><path class="st0" d="M1905.6,466.7c-0.9-2.1-3.3-1.6-6.6,1.1c-12.4,10.3-41,39.4-107.7,39.7c-121.5,0.5-142.6-199.9-142.6-199.9
		s92.7-69.2,107.1-97.1c14.4-27.9-31.6-34.1-31.6-34.1s-64.8,78.9-110.7,102.1c4.9-34.3,38.9-112.4,40.9-157.4
		c2.1-45-54.1-34-63.1-29.7h0c0.1,19.6-49.5,197.8-67.5,295.8c-10.6,17-25.8,36.4-39.4,36.5c-7.8,0-10.8-14.6-10.8-35.5
		c-0.2-29,15.9-75.5,15.8-103.8c-0.1-19.5-9-20.7-16.7-20.7c-1.7,0-11,0.3-12.7,0.3c-19.8,0.1-13.3-16.9-31.1-16.8
		c-54.6,0.2-124.2,59.8-127.2,149.8c-18.4,12.2-44.2,27.6-57.4,27.6c-13.8,0-17.3-12.8-17.3-23.8c-0.1-19.4,31.4-134.7,31.4-134.7
		s39.9-10.2,57.4-13.6c13.2-2.6,16.9-3.5,22.1-9.9c5.2-6.4,15.2-19.6,23.2-31.4c8.1-11.8,0.2-21-14.8-20.9
		c-19.7,0.1-72.2,12.5-72.2,12.5s25.3-108.9,25.2-111.2c0-2.3-3-3.4-7.1-3.4c-9.6,0-26.7,5.2-37.6,9.1c-16.7,6-30.3,26.5-33.1,36
		s-21.7,84.3-21.7,84.3s-101.3,35-115.1,40.2c-0.9,0.3-1.4,1.1-1.4,2c0,0.9,11.6,45.2,35.3,45.1c17.1-0.1,66.9-20.5,66.9-20.5
		s-25.7,102.1-25.5,136c0.1,21.8,10.3,47.4,52.9,47.2c39.8-0.1,74.3-20.5,93.8-34.7c10.6,26.9,35.7,34.3,52.8,34.2
		c38.4-0.1,68.1-30.6,71.8-34.7c5,11.8,16.7,34.4,43.6,34.3c15.2,0,30.9-17.1,42.5-33.5c-0.2,3.4-0.2,6.9,0.1,10.3
		c4.6,42.3,67.4,17.4,70.7,11.5c2.1-30.6,0.8-93.1,13-131.6c16.2,131.6,77.6,220.2,188.1,219.8c61.8-0.2,93.4-18,106.6-32.6
		C1911.3,493.6,1908.2,472.9,1905.6,466.7z M1437.1,288.6c-0.1,24.8-3.4,134.6-61.4,134.8c-53,0.2,16.2-137.4,61.4-137.5V288.6z"></path><path class="st0" d="M1806.2,465.5c47.9-0.2,85-31.7,91.7-42c8.8-13.4-10.2-33.5-16.2-33.1c-15.1,14.5-30.9,32-66.4,32.1
		c-41.8,0.2-32.3-45.8-32.3-45.8s80.4,10.4,112.8-47.4c10.3-18.5,10.8-44.1,6.6-55.1c-4.2-11.2-27.5-31.4-64.7-28.3h0
		c-45.7,3.9-103.3,51.5-116,108.8C1711.4,400.7,1730.6,465.8,1806.2,465.5z M1857.3,272.6C1857.3,272.6,1857.3,272.6,1857.3,272.6
		L1857.3,272.6C1857.3,272.6,1857.3,272.6,1857.3,272.6c7.5-0.2,6.8,12.1,4.8,25.1c-2.7,17.6-27,62.2-73.1,60.6
		C1792.2,332.2,1826.5,273.7,1857.3,272.6z"></path><path class="st0" d="M414.2,477.7l6-3.6c0.7-0.4,1.1-0.9,0.7-1.6l-1.3-2.9c0-0.1-0.1-0.1-0.1-0.1c-0.3-0.5-0.7-0.6-1.3-0.2l-1.8,1
		l-16.7,10c-0.1,0-0.2,0.1-0.2,0.1c-0.4,0.3-0.5,0.9-0.2,1.3l1.5,2.6c0.4,0.7,0.9,0.9,1.6,0.5l6.3-3.8l11.1,18.7
		c0.4,0.7,0.6,0.8,1.3,0.3l3.9-2.3c0.7-0.4,0.7-0.6,0.3-1.4L414.2,477.7z"></path><path class="st0" d="M448.5,477.7C448.5,477.7,448.5,477.7,448.5,477.7c-0.4-0.5-1-0.6-1.4-0.3l-1.6,1.2l-11.6-15.8l1.7-1.3l0,0
		c0.1,0,0.1-0.1,0.2-0.1c0.4-0.4,0.4-0.9,0-1.3l-1.3-1.8c-0.4-0.4-0.9-0.4-1.3-0.1l-8.6,6.4c0,0,0,0,0,0c-0.4,0.3-0.4,0.9-0.1,1.2
		l1.3,1.7c0,0,0,0.1,0.1,0.1c0.3,0.4,0.9,0.5,1.3,0.2l1.7-1.3l11.6,15.8l-1.5,1.1c-0.1,0-0.1,0.1-0.2,0.1c-0.4,0.4-0.4,0.9,0,1.3
		l1.3,1.7c0.4,0.4,0.9,0.4,1.3,0.1l8.3-6.1c0,0,0,0,0,0c0.4-0.3,0.4-0.9,0.1-1.2L448.5,477.7z"></path><path class="st0" d="M73.3,399.5l-2-3.3c-0.4-0.7-0.9-0.9-1.6-0.5L56.3,404l0-0.1l7.4-18.6c0.3-0.6,0.3-1.3-0.1-1.8l-1.8-2.9
		c-0.4-0.7-0.9-1-1.8-0.5l-21.6,13.4c-0.8,0.5-0.8,1-0.3,1.7l2,3.2c0,0.1,0.1,0.3,0.2,0.4c0.4,0.4,1,0.4,1.4,0l13.2-8.2l0,0.1
		l-7.3,18.5c-0.3,0.7-0.2,1.4,0.2,2l1.8,2.9c0.4,0.6,0.8,0.9,1.6,0.3l21.5-13.3C73.4,400.7,73.8,400.4,73.3,399.5z"></path><path class="st0" d="M394.9,486.3c-2.8-1.2-6-0.6-10.2,1.4l-5.7,2.6c-0.8,0.4-1,0.7-0.6,1.6l10.6,23c0.4,0.9,0.9,0.9,1.6,0.6
		l3.6-1.7c0.8-0.4,0.9-0.9,0.6-1.5l-3.5-7.5c0.4-0.2,1.5-0.6,2-0.8l0,0c5.6-2.6,8.6-7.5,5.9-13.3
		C398.4,488.8,396.8,487.2,394.9,486.3z M391.3,499.7c-0.3,0.1-1.5,0.7-2,0.9l-3.7-7.9l1.8-0.8l0,0c2.7-1.3,4.9-0.7,6.2,1.9
		S394,498.4,391.3,499.7z"></path><path class="st0" d="M479.7,452.7l-18.2-17.9c-0.5-0.5-0.9-0.5-1.5,0l-2.1,1.9c-0.6,0.5-0.8,1.2-0.5,1.9l6.4,18.8l-0.1,0.1
		l-18.8-7.3c-0.7-0.4-1.5-0.3-2,0.3l-2.1,2c-0.5,0.5-0.6,1,0,1.8l16.3,19.3l0.1,0.1c0.6,0.6,1.1,0.5,1.8-0.1l2.4-2.3
		c0.6-0.6,0.9-1,0.2-1.8l-9.4-10.6l0.1-0.1l14.9,6c0.6,0.3,1.4,0.1,1.8-0.4l1.1-1c0.5-0.4,0.7-1,0.4-1.6L465,447h0.1l9.6,9.8
		c0.8,0.8,1.3,1,2.1,0.3l2.9-2.7l0,0c0.1,0,0.1-0.1,0.2-0.2C480.2,453.8,480.2,453.1,479.7,452.7L479.7,452.7z"></path><path class="st0" d="M492.9,419.7l-10.9-9.1c-0.6-0.5-1-0.4-1.5,0.2l-2.5,3.1c-0.5,0.6-0.6,1.1,0,1.6l10.6,8.9c4.8,4,5,6.7,2.5,9.5
		s-5.2,3.4-10-0.6l-10.6-8.9c-0.6-0.5-1.1-0.4-1.5,0.2l-2.5,3.1c-0.5,0.6-0.6,1.1,0,1.6l11,9.2c6.5,5.4,12.3,5.4,17.6-0.9l0,0
		C500,431.6,499.8,425.5,492.9,419.7z"></path><path class="st0" d="M92.5,424.2c0-0.1-0.1-0.1-0.2-0.2c-0.4-0.4-1.1-0.3-1.4,0.1l-18.6,17.3c-0.8,0.7-0.6,1.2-0.1,1.8l10.3,11.2h0
		c0.1,0.1,0.2,0.2,0.3,0.3c0.4,0.3,1.1,0.2,1.4-0.2l2.2-2.1c0.1-0.1,0.2-0.1,0.2-0.2c0.4-0.4,0.3-1.1-0.1-1.4l-6.9-7.5l15.6-14.4
		c0.7-0.6,0.7-1,0.1-1.7L92.5,424.2z"></path><path class="st0" d="M65.5,428.6l15.5-12l1.3,1.7h0c0,0.1,0.1,0.1,0.2,0.2c0.4,0.3,1,0.3,1.3,0l1.7-1.3c0.4-0.4,0.4-0.9,0.1-1.3
		l-6.5-8.5c0,0,0,0,0,0c-0.3-0.4-0.9-0.4-1.2-0.1l-1.7,1.3c0,0,0,0,0,0c-0.4,0.3-0.6,0.9-0.2,1.4l1.3,1.7l-15.5,12l-1.1-1.5
		c0-0.1-0.1-0.1-0.1-0.2c-0.4-0.4-0.9-0.3-1.3,0l-1.7,1.3c0,0,0,0,0,0c-0.4,0.3-0.4,0.9-0.1,1.3l6.2,8.2c0,0,0,0,0,0.1
		c0.3,0.4,0.9,0.4,1.2,0.1l1.7-1.3c0,0,0,0,0,0c0.4-0.3,0.6-0.9,0.2-1.4L65.5,428.6z"></path><path class="st0" d="M500.2,380.6l-1.5,2.4c-0.5,0.6-0.5,1.4,0,2l11.1,16.4l0,0.1l-20-2.1c-0.7-0.2-1.5,0.2-1.8,0.8l-1.5,2.5
		c-0.4,0.6-0.4,1.2,0.4,1.7l20.8,14.3l0.1,0.1c0.7,0.5,1.2,0.2,1.7-0.5l1.7-2.8c0.4-0.7,0.7-1.2-0.3-1.8l-11.8-7.7l0-0.1l15.9,1.8
		c0.7,0.1,1.4-0.2,1.6-0.9l0.8-1.3c0.4-0.5,0.4-1.2,0-1.6l-9.1-12.8V391l11.8,6.9c1,0.6,1.5,0.6,2.1-0.2l2.1-3.4l0,0
		c0-0.1,0.1-0.1,0.1-0.2c0.3-0.5,0.1-1.1-0.4-1.3l-0.1-0.1l-22.3-12.5C501,379.8,500.6,379.9,500.2,380.6z"></path><path class="st0" d="M119.9,466.7l-2.3-4.5c-0.5-1-1.2-2.6-0.4-3.6c1.2-1.5,3-0.8,4.2,0.2c1.4,1.3,2.6,2.8,3.4,4.4
		c0.1,0.2,0.3,0.4,0.4,0.6c0.3,0.2,0.6,0.2,1.1-0.1l2.9-1.7c0.2-0.1,0.4-0.2,0.5-0.4c0.2-0.3,0.2-0.7-0.1-1.3
		c-1.2-2.4-3-4.5-5.1-6.2c-3.6-2.9-9.4-3.9-12.6,0.1c-2,2.5-2.3,5.9-0.7,8.7l2.6,5.3c0.6,1.2,1.1,2.6,0.1,3.8
		c-1.2,1.5-3.4,0.9-4.7-0.2c-1.6-1.4-3-3-4.1-4.9c-0.1-0.2-0.2-0.4-0.4-0.5c-0.3-0.3-0.8-0.2-1.1,0.1l-2.9,1.8
		c-0.2,0.1-0.4,0.3-0.6,0.4c-0.2,0.3-0.2,0.6,0.1,1.2c1.5,2.4,3.4,4.6,5.6,6.4v0c4.3,3.5,9.9,3.7,13.6-0.7
		C121.7,472.8,121.5,469.8,119.9,466.7z"></path><path class="st0" d="M360.6,496.6c-7.5,2.6-10.2,9.8-7.5,18s8.9,12.2,16.5,9.6l0,0c7.1-2.4,10.4-9.4,7.5-18
		C374.4,498.5,368.5,493.9,360.6,496.6z M368,519c-3.6,1.2-6.5-0.7-8.5-6.7c-1.9-5.6-0.6-9.3,2.7-10.4l0,0c3.6-1.2,6.4,0.6,8.5,6.7
		C372.6,514.4,371.4,517.9,368,519z"></path><path class="st0" d="M333.9,530.1c0,0,0-0.1,0-0.1c-0.1-0.5-0.6-0.8-1.1-0.7l-2,0.3l-3.4-19.4l2.1-0.4v0c0.1,0,0.1,0,0.2,0
		c0.5-0.1,0.8-0.7,0.6-1.2l-0.4-2.1c-0.1-0.5-0.6-0.8-1.1-0.7l-10.5,1.8c0,0,0,0,0,0c-0.5,0.1-0.8,0.6-0.7,1.1l0.4,2.1c0,0,0,0,0,0
		c0.1,0.5,0.6,0.9,1.1,0.9l2.1-0.4l3.4,19.4l-1.8,0.3c-0.1,0-0.1,0-0.2,0c-0.5,0.2-0.7,0.7-0.6,1.2l0.4,2.1c0,0,0,0,0,0
		c0.1,0.5,0.6,0.8,1.1,0.7l10.1-1.8c0,0,0,0,0,0c0.5-0.1,0.8-0.6,0.7-1.1L333.9,530.1z"></path><path class="st0" d="M306.1,521.3l-4.7-1.7c-1-0.3-2.7-1-2.8-2.3c-0.1-1.9,1.6-2.6,3.2-2.8c1.9-0.1,3.7,0.2,5.5,0.8
		c0.2,0.1,0.5,0.1,0.7,0.2c0.4,0,0.6-0.2,0.7-0.8l1-3.2c0.1-0.2,0.1-0.4,0.1-0.6c0-0.4-0.3-0.6-1-0.8c-2.6-0.9-5.3-1.2-8-1
		c-4.7,0.4-9.5,3.7-9.1,8.8c0.3,3.2,2.4,5.9,5.5,6.8l5.5,2c1.3,0.5,2.5,1.1,2.7,2.7c0.2,2-1.9,3-3.6,3.1c-2.1,0.1-4.3-0.1-6.3-0.7
		c-0.2-0.1-0.5-0.1-0.7-0.1c-0.5,0-0.7,0.4-0.8,0.8l-0.8,3.3c-0.1,0.2-0.1,0.5-0.1,0.7c0,0.4,0.2,0.6,0.9,0.8c2.8,0.7,5.6,1,8.4,0.8
		v0c5.5-0.4,9.8-4.2,9.3-9.9C311.5,524.4,309.3,522.4,306.1,521.3z"></path><path class="st0" d="M216.5,503.1c-2.1-1.8-4.5-3.1-7.1-3.8c-4.5-1.4-10.2-0.1-11.7,4.9c-0.9,3.1,0.1,6.4,2.6,8.3l4.4,3.9
		c1,0.9,2,2,1.5,3.4c-0.6,1.9-2.8,2.1-4.5,1.6c-2-0.7-3.9-1.7-5.6-3c-0.2-0.2-0.4-0.3-0.6-0.3c-0.5-0.2-0.8,0.1-1,0.5l-2,2.8
		c-0.1,0.2-0.3,0.4-0.3,0.6c-0.1,0.3,0,0.7,0.6,1.1c2.3,1.7,4.9,2.9,7.6,3.8v0c5.2,1.6,10.6-0.3,12.2-5.8c1-3.5-0.3-6.2-2.9-8.5
		l-3.8-3.3c-0.8-0.7-2.1-1.9-1.8-3.2c0.6-1.8,2.5-1.9,4-1.4c1.8,0.6,3.4,1.6,4.8,2.8c0.2,0.2,0.4,0.3,0.6,0.4c0.4,0.1,0.7,0,1-0.5
		l2.1-2.6c0.1-0.2,0.2-0.3,0.3-0.5C217.2,503.9,217,503.5,216.5,503.1z"></path><path class="st0" d="M193.1,495.3c0.1-0.5-0.1-1-0.6-1.2l-9.9-4c0,0,0,0-0.1,0c-0.5-0.2-0.9,0.1-1.1,0.6l-0.8,2c0,0,0,0,0,0
		c-0.2,0.5,0,1.1,0.5,1.3l2,0.8l-7.3,18.2l-1.7-0.7c-0.1,0-0.1-0.1-0.2-0.1c-0.5-0.1-1,0.2-1.1,0.7l-0.8,2c-0.1,0.5,0.1,1,0.6,1.2
		l9.5,4c0,0,0,0,0.1,0c0.5,0.1,0.9-0.1,1.1-0.6l0.8-2c0,0,0,0,0,0c0.2-0.5,0-1.1-0.5-1.3l-1.9-0.8l7.3-18.2l2,0.8l0,0
		c0.1,0,0.1,0,0.2,0.1c0.5,0.1,1-0.2,1.1-0.7L193.1,495.3z"></path><path class="st0" d="M261.4,509.8l-3.8-0.5c-0.8-0.1-1.3,0.1-1.4,1l-1.9,15.6h-0.1l-9.9-17.4c-0.3-0.6-0.9-1-1.5-1l-3.3-0.4
		c-0.8-0.1-1.3,0.1-1.5,1.1l-3.2,25.2c-0.1,1,0.3,1.2,1.2,1.3l3.7,0.5c0.8,0.2,1.2-0.1,1.3-1l2-15.5l9.9,17.3c0.3,0.6,0.9,1,1.6,1.1
		l3.4,0.4v0c0.7,0.1,1.2-0.1,1.4-1.1l3.1-25.2C262.4,510.5,262.4,509.9,261.4,509.8z"></path><path class="st0" d="M282.7,510.5l-10.7-0.2c0,0,0,0-0.1,0c-0.5,0-0.9,0.4-0.8,0.9v2.1c0,0,0,0,0,0c0,0.6,0.4,1,0.9,1.1h2.1
		l-0.3,19.7H272c-0.1,0-0.1,0-0.2,0c-0.5,0-0.9,0.5-0.8,1v2.2c0.1,0.5,0.5,0.9,1,0.9l10.3,0.2c0,0,0,0,0.1,0c0.5,0,0.9-0.4,0.8-0.9
		v-2.1c0,0,0,0,0,0c0-0.6-0.4-1-1-1h-2l0.3-19.7h2.2v0c0,0,0.1,0,0.1,0c0.5,0,0.9-0.5,0.8-1v-2.2
		C283.6,510.8,283.2,510.4,282.7,510.5z"></path><path class="st0" d="M173.9,491.1l1.7-2.6c0,0,0-0.1,0.1-0.2c0.2-0.5,0.2-0.9-0.5-1.2l-1.8-1l-17.3-9c-0.1-0.1-0.1-0.1-0.2-0.1
		c-0.5-0.2-1,0-1.2,0.5l-1.4,2.6c-0.4,0.7-0.3,1.2,0.4,1.6l6.5,3.4l-10,19.2c-0.4,0.8-0.4,0.9,0.4,1.3l4,2.1
		c0.7,0.4,0.9,0.3,1.3-0.5l10-19.2l6.2,3.3C172.9,491.7,173.5,491.8,173.9,491.1z"></path><path class="st0" d="M146.5,470.9l-3.5-2.2c-0.5-0.4-1.2-0.3-1.7,0.1l-22,16.4c-0.1,0.1-0.3,0.2-0.3,0.4c0,0,0,0.1-0.1,0.1
		c-0.1,0.3,0,0.6,0.2,0.8l3.8,2.5c0.5,0.3,1.1,0.3,1.5-0.2l4-3.2l1.2,0.8l5.9,3.9l1.2,0.8l-1.2,4.8c-0.3,0.7,0,1.5,0.7,1.8l3.8,2.5
		v0c0,0,0,0,0.1,0c0.3,0.2,0.8,0.1,1-0.2c0.1-0.2,0.2-0.4,0.2-0.6l5.8-26.8C147.4,471.8,147.1,471.2,146.5,470.9z M140.2,478
		l-2.2,8.1l-5.5-3.6l6.4-5.2c0.7-0.6,1.3-1.1,1.9-1.6h0.1C140.7,476.3,140.5,477.1,140.2,478z"></path><path class="st0" d="M561.1,357.9l-35-13.8c0.9-3.4,2.4-6.6,4.3-9.5l18.1,8.2c2.1,1,4.7,0.1,5.8-2c1.2-1.9,2.2-4,3-6.1
		c1.8-4.8,2.2-9.1,1.2-12.7c-1.1-3.8-3.9-6.9-7.6-8.4L502.6,291l-0.3-0.1h-0.1c-2.4-1.1-7.8-2.6-13.9,2c0.1-2.1,0.1-4.2,0.1-6.3
		c0-11.8-2-27.3-3.9-37.4c-2.3-12.2-5.5-24.2-9.5-36l-2.6-7.8l0-0.2c-1.9-5.1-3.6-10.3-5.2-15.5c-5.2-17-8.3-32.7-8.3-42
		c0-15.9,13.8-40.7,32.2-57.7l8.6-7.9L412.3,1.3l-6.9,4.6c-16,10.7-36.7,16.5-58.2,16.5c-22.6,0-44-6.4-60.3-17.9l-6.1-4.3l-6.1,4.3
		c-16.2,11.6-37.7,17.9-60.3,17.9c-21.6,0-42.2-5.9-58.2-16.5l-6.9-4.6L70.5,74.1l-8.4,7.8l8.6,7.9c18.4,17,32.2,41.7,32.2,57.6
		c0,9.3-3.1,25-8.3,42c-1.6,5.2-3.4,10.4-5.2,15.5l-2.6,8c-4,11.8-7.2,23.8-9.5,36c-1.9,10.1-3.9,25.6-3.9,37.5
		c0,2.1,0.1,4.2,0.1,6.3c-6.2-4.5-11.5-3-13.9-2h-0.1l-0.3,0.1L11,313.6c-3.7,1.5-6.5,4.6-7.6,8.4c-1,3.6-0.6,7.9,1.2,12.7
		c0.8,2.1,1.8,4.2,3,6.1c0.8,1.5,2.3,2.4,4,2.4c0.6,0,1.3-0.1,1.8-0.4l18-8.2c2,2.9,3.4,6.1,4.3,9.5l-35,13.8
		c-0.3,0.1-0.5,0.3-0.6,0.6c-0.1,0.3-0.1,0.6,0,0.9l2.1,5.4c21.6,55.6,58.9,103.7,107.4,138.4c44.7,32,97.5,50.8,152.4,54.3l18,18.3
		c0.2,0.2,0.5,0.3,0.8,0.3c0.3,0,0.6-0.1,0.8-0.3l18-18.3c54.9-3.5,107.7-22.3,152.4-54.3c48.5-34.7,85.9-82.8,107.5-138.4l2.1-5.4
		c0.1-0.3,0.1-0.6,0-0.9C561.6,358.3,561.3,358,561.1,357.9z M506.3,316.3c1.7-4.3,2.3-9,1.6-13.6c0-0.3-0.1-0.6-0.2-0.9l-0.5-2.3
		l41.2,19.4c2.2,0.8,3.8,2.6,4.5,4.8c1.3,4.5-1.4,10.3-2.6,12.5l-0.5,0.9l-43.9-19.8L506.3,316.3z M487.3,305.9L487.3,305.9
		c3.2-5.2,6.7-8.1,9.7-8.1l2.2,0.5c1.5,0.8,2.6,2.7,3.1,5.4c0.5,4-0.1,8-1.8,11.6l-0.3,0.8c0,0-0.1,0.1-0.1,0.2
		c-0.9,2.3,0.2,4.9,2.5,5.9l3.9,1.8l17.3,7.8l-4.4,9.9l-25.7-10.1c-0.7-0.3-1.5-0.4-2.3-0.5c-2,0-3.9,1.1-5,2.8l-0.1,0.2
		c-0.7,1.2-2.9,4-4.8,4.4c-0.3,0.1-0.6,0.1-0.8,0C483.9,327.8,486.1,316.9,487.3,305.9z M480.8,345.6c0.7,0,1.3-0.1,2-0.3
		c3.7-0.9,6.9-5.1,8.4-7.3c0.2-0.2,0.4-0.3,0.7-0.3c0.1,0,0.2,0,0.3,0.1l2.1,0.9l1.8,0.7c-2,4.9-5,12-7.7,17.6l-12.9-4.8
		c0.6-1.6,2-5.6,2.5-7.2C478.9,345.5,479.8,345.6,480.8,345.6z M485.6,362.6c-17.2,33.4-42.1,62.2-72.7,84
		c-34.9,25-76.2,39.5-119.1,41.9l13.1-13.3c49-5.6,94.2-27.2,127.6-60.8c16.2-16.3,29.4-35.3,38.7-56.3L485.6,362.6z M87.7,250.9
		L87.7,250.9c2.1-11.7,5.2-23.2,9-34.5l2.6-7.7c2-5.3,3.8-10.8,5.4-16c5.5-17.9,8.8-34.7,8.8-45.2c0-20.1-16.3-47.6-35.5-65.4
		l-0.2-0.2l72.6-67.1C167.5,26.1,189.9,33,214.4,33c25.7,0,49-7.5,66.4-19.9C298.2,25.5,321.5,33,347.2,33c24.5,0,47-6.9,64.1-18.3
		L484,81.9l-0.2,0.2c-19.2,17.8-35.5,45.3-35.5,65.4c0,10.5,3.3,27.3,8.8,45.2c1.6,5.3,3.4,10.7,5.4,16l2.6,7.7
		c3.8,11.3,6.9,22.8,9.1,34.5c1.9,10.1,3.7,24.9,3.7,35.5c0,92.6-77,168.8-175.8,178.5L281,486.4l-21.2-21.5
		C160.9,455.2,84,379,84,286.4C84,275.8,85.7,261.1,87.7,250.9z M268,488.5c-42.9-2.4-84.2-17-119.1-41.9
		c-30.6-21.8-55.5-50.6-72.7-84l12.4-4.5c9.4,21,22.5,40.1,38.7,56.3c33.3,33.6,78.6,55.2,127.6,60.8L268,488.5z M83.8,345.2
		c0.5,1.6,2,5.6,2.5,7.1l-12.9,4.8c-2.7-5.7-5.7-12.7-7.7-17.6l1.8-0.7l2.1-0.9c0.1,0,0.2-0.1,0.3-0.1c0.3,0,0.5,0.1,0.6,0.3
		c1.5,2.2,4.7,6.4,8.4,7.3C80.5,345.8,82.2,345.7,83.8,345.2z M59.2,322.1c2.2-1,3.3-3.6,2.4-5.9c0-0.1-0.1-0.1-0.1-0.2l-0.4-0.8
		c-1.7-3.6-2.3-7.6-1.8-11.6c0.5-2.7,1.6-4.6,3.1-5.4l0.2-0.1c0.6-0.3,1.3-0.4,1.9-0.4c3,0,6.5,3,9.7,8.1c1.2,11,3.5,21.9,6.8,32.5
		c-0.3,0.1-0.5,0.1-0.8,0c-1.9-0.4-4.1-3.2-4.8-4.4l-0.1-0.2c-1.1-1.7-3-2.8-5-2.8c-0.8,0-1.6,0.2-2.3,0.5l-25.7,10.1
		c-1-3.5-2.5-6.8-4.5-9.9L59.2,322.1z M12,337.1l-0.5-0.9c-1.2-2.3-3.9-8.1-2.6-12.5c0.7-2.2,2.3-4,4.5-4.8l41.2-19.4l-0.5,2.3
		c-0.1,0.3-0.1,0.6-0.2,0.9c-0.7,4.6-0.1,9.3,1.6,13.6l0.4,1L12,337.1z M553.2,363.5c-21.2,54-57.6,100.7-104.8,134.4
		c-44.3,31.8-96.8,50.2-151.3,53.2h-0.3l-16,16.2l-16-16.2h-0.3c-54.4-3-106.9-21.5-151.2-53.2C66.2,464.1,29.8,417.4,8.6,363.5
		l-0.6-1.4l51.5-20.3l0.5,1.4c17.3,43.7,46.8,81.5,85,108.8c37.9,27.1,83.1,42.2,129.7,43.4h0.6l5.5,5.5l5.5-5.5h0.6
		c46.6-1.2,91.8-16.3,129.7-43.4c38.2-27.3,67.7-65.1,85-108.8l0.5-1.4l51.6,20.3L553.2,363.5z"></path><path class="st0" d="M480.8,345.6C480.8,345.6,480.8,345.6,480.8,345.6C480.8,345.6,480.8,345.6,480.8,345.6L480.8,345.6z"></path><path class="st0" d="M192,77C192,77,192,77,192,77c0.5,2.6,1.9,5,3.9,6.7c2.3,2,4.7,3.1,6.7,3c0,0,0,0,0,0c0,0,0,0,0,0
		c-0.6-2.6-2-5-4-6.7C196.5,77.9,193.9,76.9,192,77C192,77,192,77,192,77z"></path><path class="st0" d="M203.7,84.5c0,2.5,0.4,4.8,1.3,6.3c0.4-0.3,0.7-0.8,1.1-1.2c0.8-1.1,1.5-2.5,2-4.2c0,0,0,0,0,0
		c0-0.1,0-0.1,0.1-0.2c0.2-0.7,0.4-1.5,0.5-2.3c0.2-0.8,0.2-1.5,0.3-2.3c0.1-2.3-0.4-4.5-1.3-6.6c-1.7,1.5-3.1,4.4-3.7,8
		C203.8,82.8,203.8,83.7,203.7,84.5z"></path><path class="st0" d="M206.7,107.9c1.5-0.8,2.9-2.2,4.2-3.9c0.2-0.3,0.5-0.6,0.7-0.9c0.8-1.2,1.5-2.6,1.9-4.1
		c0.3-1.1,0.5-2.2,0.5-3.3c-0.5,0.1-1.1,0.3-1.7,0.5c-1.7,0.8-3.6,2.3-5.1,4.3c-1.9,2.4-3,5.3-3.1,8.3h0l0,0
		C204.9,108.7,205.8,108.4,206.7,107.9z"></path><path class="st0" d="M198.3,117.3c1.7-1.5,3.1-4.5,3.6-8c0-0.1,0-0.2,0-0.4c0.4-3.4,0-6.6-1.2-8.5c-1.7,1.5-3.1,4.4-3.7,8
		c-0.1,0.9-0.2,1.8-0.2,2.6C196.9,113.5,197.4,115.8,198.3,117.3z"></path><path class="st0" d="M139.8,115.5c-0.6-1.7-1.6-3.3-2.9-4.6c-0.8-0.8-1.6-1.5-2.6-2c-0.3-0.2-0.7-0.4-1.1-0.6
		c-1.4-0.8-2.8-1.2-4.1-1.4c-1-0.1-1.9-0.1-2.7,0.1c1,2.8,3,5.1,5.5,6.6C134.7,115.3,137.7,115.9,139.8,115.5z"></path><path class="st0" d="M145.4,133.1c1.9,0,3.8-0.5,5.5-1.4c-1.8-2.2-4.3-3.7-7.1-4.2c-0.7-0.2-1.4-0.3-2.1-0.3c-0.2,0-0.4,0-0.6,0
		c-0.1,0-0.3,0-0.4,0c-1.7,0.1-3.4,0.6-4.9,1.4c1.8,2.2,4.3,3.7,7.1,4.2C143.7,133,144.5,133.1,145.4,133.1z"></path><path class="st0" d="M189.4,130.1C189.4,130.1,189.4,130.1,189.4,130.1c2-0.9,4.2-3.2,5.7-6.4c1.4-2.7,1.9-5.8,1.4-8.8c0,0,0,0,0,0
		c0,0,0,0,0,0c-2,0.9-4.2,3.2-5.7,6.4C189.3,124,188.8,127.1,189.4,130.1C189.3,130.1,189.4,130.1,189.4,130.1z"></path><path class="st0" d="M159.3,134.2c0.3,0.3,0.7,0.5,1,0.7c2.4,1.5,4.9,2.1,6.7,1.8c-0.8-2.8-2.6-5.3-5.1-7c0,0,0,0,0,0
		c-2.7-2-5.6-2.8-7.7-2.5C155.1,130.1,156.8,132.6,159.3,134.2z"></path><path class="st0" d="M135,97.5c0.4-3-0.1-6.1-1.5-8.8c-1.3-2.8-3.2-4.9-5-5.9c-0.3-0.1-0.5-0.3-0.8-0.4c-0.4,3,0.1,6.1,1.5,8.8
		C130.8,94.4,133,96.6,135,97.5z"></path><path class="st0" d="M130.7,104c1.8,2.4,4,4.1,6,4.7c0.3,0.1,0.6,0.2,0.8,0.2c-0.1-3-1.2-5.9-3.1-8.3c-2.1-2.8-4.6-4.5-6.8-4.9l0,0
		h0C127.8,98.7,128.8,101.6,130.7,104z"></path><path class="st0" d="M139.2,80.6C139.2,80.6,139.2,80.6,139.2,80.6c1.6-1.7,2.7-4.7,2.9-8.3c0.1-3.6-0.6-6.8-2-8.7c0,0,0,0,0,0.1
		c0,0,0,0,0-0.1c-1.5,1.7-2.7,4.8-2.9,8.4C136.9,75.5,137.7,78.7,139.2,80.6C139.1,80.6,139.2,80.6,139.2,80.6z"></path><path class="st0" d="M196.8,125.9c1.9,0.3,4.3-0.3,6.7-1.7c0.2-0.1,0.4-0.2,0.6-0.4c2.5-1.5,4.4-3.8,5.5-6.6c0,0,0,0,0,0
		c0,0,0,0,0,0c-2.1-0.5-5.1,0.2-7.9,2c-2.5,1.5-4.4,3.8-5.5,6.6c0,0,0,0,0,0c0,0,0,0,0,0C196.4,125.8,196.6,125.8,196.8,125.9z"></path><path class="st0" d="M190.7,131.6c1.5,0.9,3.2,1.4,4.9,1.4c1,0,2.1-0.1,3.1-0.3c1.1-0.2,2.1-0.5,3-0.9c0.3-0.1,0.6-0.3,0.9-0.5
		c1.2-0.7,2.3-1.6,3.2-2.7c-0.6-0.3-1.2-0.6-1.9-0.9c-2-0.7-4.1-0.8-6.1-0.3c-1.8,0.3-3.4,1-4.8,2
		C192.2,130.1,191.4,130.8,190.7,131.6z"></path><path class="st0" d="M201.8,90c-1.1-1.3-2.4-2.2-3.6-2.6c0,0,0,0,0,0l0,0h0c-0.3,2.7,0.4,5.5,1.8,7.8c0.1,0.2,0.3,0.5,0.4,0.7
		c0.9,1.6,2.1,2.8,3.3,3.6c0.6,0.4,1.2,0.8,1.8,1c0,0,0,0,0,0c0,0,0,0,0,0c0.2-2.7-0.4-5.5-1.8-7.8C203.1,91.7,202.5,90.8,201.8,90z
		"></path><path class="st0" d="M213.4,106.7c-0.3,0-0.6,0-1,0.1c-0.6,0.1-1.2,0.2-1.8,0.4c-0.2,0.1-0.3,0.1-0.5,0.2c-0.6,0.2-1.2,0.5-1.8,0.8
		c-0.4,0.2-0.7,0.4-1.1,0.6c-0.3,0.2-0.6,0.4-0.9,0.6c-2.1,1.5-3.7,3.6-4.5,6c2.1,0.5,5.1-0.2,7.9-2c2.5-1.5,4.4-3.8,5.5-6.6
		c-0.3-0.1-0.5-0.1-0.8-0.1S213.7,106.7,213.4,106.7z"></path><path class="st0" d="M206.4,95.2c0,0.8,0,1.5,0.2,2.3c2-0.8,4.2-3.1,5.8-6.3c0.7-1.4,1.2-2.8,1.4-4.3c0.2-1.1,0.2-2.3,0.2-3.4
		c0-0.4-0.1-0.8-0.1-1.1c-1,0.4-2.1,1.2-3.1,2.3c-1,1.1-1.9,2.4-2.7,4C207,90.7,206.4,92.9,206.4,95.2z"></path><path class="st0" d="M202.4,80.6C202.4,80.6,202.4,80.6,202.4,80.6C202.4,80.6,202.4,80.6,202.4,80.6c1.4-1.9,2.2-5.1,2-8.7
		c-0.1-3.6-1.3-6.7-2.9-8.4c0,0,0,0,0,0c0,0,0,0,0,0c-1.4,1.9-2.2,5.1-2,8.7C199.7,75.8,200.8,78.9,202.4,80.6z"></path><path class="st0" d="M198.1,77c0.1-3-0.7-6-2.4-8.6c-1.8-3-4.2-5-6.4-5.5c-0.1,3,0.7,6,2.4,8.6C193.6,74.4,196,76.4,198.1,77z"></path><path class="st0" d="M189.8,139.3c2.8,0.5,5.6-0.1,7.9-1.7c-1.9-2.1-4.5-3.4-7.4-3.6c-2.8-0.5-5.6,0.1-7.9,1.7
		C184.4,137.7,187,139,189.8,139.3z"></path><path class="st0" d="M182.3,134.3c2.4-1.7,4.2-4.2,5.1-7c0,0,0,0,0,0c0,0,0,0,0,0c-2.2-0.3-5.1,0.5-7.8,2.5c-2.4,1.7-4.2,4.2-5.1,7
		c0,0,0,0,0,0c0,0,0,0,0,0C176.7,137.1,179.6,136.3,182.3,134.3z"></path><path class="st0" d="M162.8,137.8c-0.6,0.1-1.2,0.2-1.8,0.3c-2.8,0.6-5.3,2.2-7,4.5c1.6,0.8,3.3,1.2,5,1.2c1,0,2.1-0.1,3.1-0.4
		c2.7-0.6,5.1-2.1,6.8-4.3c0.4,0.3,0.7,0.7,1.1,1c-3.6,2.1-6.7,4.9-9.2,8.2l2.6,4.1c0,0,0-0.1,0-0.1l0.1,0.1
		c1.8-4.2,4.3-8.1,7.4-11.4c2.9,3.4,5.3,7.2,6.9,11.3l0.1-0.1c0,0,0,0.1,0,0.1l2.6-4.1c-2.4-3.3-5.3-6-8.8-8.1
		c0.4-0.4,0.7-0.7,1.1-1c1.7,2.1,4.1,3.6,6.8,4.2c1,0.3,2.1,0.4,3.1,0.4c1.7,0,3.4-0.4,5-1.2c-2.5-3.2-6.3-4.9-10.2-4.9
		c-1.3,0-2.6,0.2-3.9,0.6c-1,0.4-1.9,0.8-2.8,1.3c-0.8-0.4-1.6-0.8-2.5-1.2l-0.1-0.1l0,0C166.5,137.7,164.7,137.5,162.8,137.8z"></path><path class="st0" d="M146.3,135.6c-0.9,0.5-1.7,1.2-2.4,2h0l0,0c2.3,1.6,5.2,2.2,7.9,1.7c1.4-0.1,2.8-0.5,4-1.1
		c0.3-0.2,0.6-0.3,0.9-0.5c0.6-0.4,1.2-0.8,1.7-1.3c0.3-0.2,0.5-0.5,0.7-0.7c-2.3-1.6-5.2-2.2-7.9-1.7
		C149.5,134.1,147.8,134.7,146.3,135.6z"></path><path class="st0" d="M150.9,121.2c-1.5-3.2-3.6-5.5-5.6-6.4c-0.1,0.8-0.2,1.5-0.2,2.3c0,2.3,0.5,4.5,1.5,6.6
		c1.5,3.2,3.6,5.5,5.7,6.4c0.1-0.8,0.2-1.5,0.2-2.3C152.4,125.6,151.9,123.3,150.9,121.2z"></path><path class="st0" d="M149.9,71.5c1.7-2.5,2.5-5.5,2.4-8.6c-2.1,0.6-4.5,2.5-6.4,5.5c-1.7,2.5-2.5,5.5-2.4,8.6
		C145.6,76.4,148,74.5,149.9,71.5z"></path><path class="st0" d="M138.9,86.6C138.9,86.6,138.9,86.7,138.9,86.6c1.9,0.2,4.5-0.9,6.7-2.9c2-1.7,3.4-4.1,4-6.7c0,0,0,0,0,0
		c0,0,0,0,0,0c-0.6,0-1.4,0.1-2.1,0.3c-1.1,0.3-2.2,0.8-3.3,1.6c-0.5,0.3-0.9,0.7-1.4,1.1C140.9,81.7,139.5,84,138.9,86.6
		C138.9,86.6,138.9,86.6,138.9,86.6z"></path><path class="st0" d="M141.6,95.3c1.4-2.4,2-5.1,1.8-7.8c-1.9,0.6-4,2.5-5.5,5.3c-1.4,2.4-2,5.1-1.8,7.8
		C138,99.9,140.1,98,141.6,95.3z"></path><path class="st0" d="M139.7,109.3c0.5,3.1,1.6,5.7,3,7.4c0.2,0.2,0.4,0.4,0.6,0.6c1.2-2.1,1.6-5.3,1.1-8.9c-0.5-3.5-1.9-6.5-3.6-8
		c-0.9,1.5-1.4,3.8-1.3,6.3C139.5,107.6,139.5,108.4,139.7,109.3z"></path><path class="st0" d="M132.9,82.8c0.6,3.6,2,6.5,3.7,8c1-2.1,1.4-4.4,1.3-6.6c0-0.8-0.1-1.5-0.3-2.3c-0.2-1.2-0.5-2.3-0.8-3.3
		c-0.4-1-0.8-1.9-1.3-2.7c-0.5-0.8-1-1.5-1.6-2c-1,2.1-1.4,4.4-1.3,6.6C132.6,81.3,132.7,82.1,132.9,82.8z"></path><path class="st0" d="M137.4,123.8c2.8,1.9,5.7,2.5,7.9,2c0,0,0,0,0,0c0,0,0,0,0,0c-1-2.8-2.9-5.1-5.5-6.6c-2.8-1.8-5.7-2.5-7.9-2
		c0,0,0,0,0,0c0,0,0,0,0,0C133,119.9,134.9,122.3,137.4,123.8z"></path><path class="st0" d="M248.9,431.7v-16.8c0-2.7,0.2-5.3,0.6-8v-0.1l-0.6-0.6h-0.2c-0.9,0.3-1.9,0.5-2.9,0.7l-5.1,1.1
		c-1.2,0.2-2.4,0.4-3.5,0.5h-0.2v0.2c-0.2,0.9-0.6,1.9-1,2.7l-0.1,0.2l0.7,0.5l0.1-0.1c0.6-0.2,1.1-0.4,1.7-0.5l2.4-0.5
		c0.6-0.1,1.1-0.2,1.7-0.3c1.4,0,1.8,0.5,1.8,4.8v15.6c0,2.8-0.2,5.6-0.6,8.4l-0.1,0.3h0.4c1.1-0.1,2-0.1,2.8-0.1
		c1.1,0,2.2,0.1,2.7,0.1l0.4,0l-0.1-0.4C249.1,436.9,248.8,434.3,248.9,431.7z"></path><path class="st0" d="M300.8,410.1l0-0.2c-0.2-1-0.4-2-0.5-3v-0.3h-0.3c-1.2,0.1-2.5,0.2-3.7,0.1h-12.1c-1.4,0-2.7,0-3.9-0.1H280
		v0.2c-0.3,1.7-0.7,3.4-1.2,5.1l-0.1,0.3l0.9,0.3l0.1-0.1c1.6-1.1,3.6-1.6,5.5-1.5h10.6L279,439.8l0.4,0.9h0.2
		c2.3-0.2,6.1-0.2,6.1-0.2h0.2v-0.2c0.3-4.4,2-8.8,6.3-16.7c2.7-4.9,5.8-10.3,8.4-13.2L300.8,410.1z"></path><path class="st0" d="M268.7,421.4c3.1-1.8,6-3.9,6-8.2c0-4.6-3.8-8-9.1-8c-5.4,0-9.7,3.9-9.7,8.9c0,4.1,2.8,6.5,5.6,8.2
		c-4.5,2.6-7.3,5.2-7.3,9.6c0,5.2,4.2,8.8,10.2,8.8c6.6,0,11.4-4.2,11.4-9.9C275.9,426.1,272.5,423.5,268.7,421.4z M260.2,413.2
		L260.2,413.2c0-2.9,2.3-5.4,5.2-5.4c0.1,0,0.2,0,0.3,0c3-0.1,5.5,2.3,5.6,5.2c0,0.1,0,0.2,0,0.3c0,3.6-2.6,5.4-5.2,6.9
		C263.1,418.5,260.2,416.6,260.2,413.2z M265.1,438.3c-0.1,0-0.1,0-0.2,0c-3.5,0.1-6.5-2.6-6.6-6.1c0-0.1,0-0.3,0-0.4
		c0-4,3.1-6.5,6.3-8.1c4.4,2.4,7.2,4.4,7.2,8.1C271.7,435.5,268.7,438.4,265.1,438.3z"></path><path class="st0" d="M315,422.1c3.1-1.8,6-3.9,6-8.2c0-4.6-3.8-8-9.1-8c-5.5,0-9.7,3.9-9.7,8.9c0,4.1,2.8,6.5,5.6,8.2
		c-4.5,2.6-7.3,5.2-7.3,9.6c0,5.2,4.2,8.8,10.2,8.8c6.6,0,11.4-4.2,11.4-9.9C322.2,426.8,318.8,424.2,315,422.1z M306.9,413.9
		L306.9,413.9c-0.1-2.9,2.3-5.4,5.2-5.4c0.1,0,0.2,0,0.3,0c3-0.1,5.5,2.3,5.6,5.2c0,0.1,0,0.2,0,0.3c0,3.6-2.6,5.4-5.2,6.8
		C309.7,419.2,306.9,417.3,306.9,413.9z M311.7,439c0,0-0.1,0-0.1,0l0,0c-3.5,0.1-6.5-2.6-6.6-6.1c0-0.1,0-0.3,0-0.4
		c0-4,3.1-6.5,6.3-8.1c4.4,2.4,7.2,4.4,7.2,8.1C318.3,436.2,315.3,439.1,311.7,439z"></path><path class="st0" d="M178.1,368.8c-6,4.5-8.9,4.5-14.5,4.5c-9.7,0-10.6-2.7-10.6-10.9v-12.7h6.3c4.3,0,8.5,0.2,12.8,0.7
		c0.6-2.1,1.5-5.3,2.1-7.7c0,0,0.2-0.8-0.7-0.6c-4.3,0.5-8.7,0.7-13,0.7H153v-9.1c0-3.8,0.3-8.1,0.4-9.6c2.2-0.1,4.1-0.2,5.7-0.2
		c5.1,0,10.5,0.5,13.2,4.5c0.2,0.2,1.1,1.5,1.5-0.2l2.9-10.5c-6.5,0.1-8.9,0.3-14.9,0.3h-16.8c-2.2,0-4.3,0-7.3-0.2
		c1.6,4,1.8,12.7,1.8,17.2v28c0,5.7-0.4,11.4-1.2,17c4-0.1,8.9-0.1,16.3-0.1c5.9,0,12.6,0.1,22.6,0.4c0.2-0.6,2.1-7.5,2.7-9.6
		C180.4,368.5,179.1,368,178.1,368.8z"></path><path class="st0" d="M210.9,339.4c-0.4,3.3-1.2,6.5-2.4,9.6l-5.2,13.4c-0.7,1.7-1.4,3.5-2,5.5c0,0-1.7-6-2.5-8.7l-3.3-11.4
		c-1.3-4.2-2.2-8.4-2.6-12.8c-5.4,0.5-10.8,0.7-16.2,0.5c3.9,4.6,6.1,10.5,7.9,15.8l5.9,18.1c1.2,3.4,2.1,6.8,2.7,10.4
		c1.7-0.1,3.9-0.2,5.7-0.2c2,0,4.1,0,5,0.1c0.6-3.1,1.6-6.2,2.8-9.1l8.6-19.8c2.3-5.5,4.8-10.8,7.9-14.7c0.4-0.5,0.6-1.3-0.7-1.1
		c-2,0.2-4,0.4-6.1,0.4c-1.9,0-4.2,0-5.5-0.1C211,337,210.9,338.2,210.9,339.4z"></path><path class="st0" d="M278.5,349.5c1.6-2.5,3.6-3.9,6.2-3.9c2.1,0,2.4,0.7,4.1,2.6c0.8,0.9,1.4,0.1,1.5-0.5
		c0.8-2.8,2.1-7.6,3.4-12.2c-1.2-0.6-2.5-0.9-3.9-0.8c-4.2,0-7.1,1.7-11.1,7l-3.3,4.2l0.2-10.3c-3.6,0.2-9,0.4-12.4,0.4
		c1.5,4.8,1.9,12.6,1.9,16.9v10.8c0.1,5.4-0.3,10.8-1.1,16.1c1.7-0.1,4.5-0.2,7.3-0.2s5.7,0.1,7.1,0.2c-1.3-3.9-1.8-7.1-1.8-14.9
		v-7.3C276.7,353.3,277.2,351.6,278.5,349.5z"></path><path class="st0" d="M327.9,335.7c-2.3,0.5-4.6,0.7-6.9,0.6h-6.2c0-4,0.3-8.1,0.8-12.1c0.1-1-0.4-1.8-1.3-1.2
		c-3.6,2.1-7.5,3.8-11.5,5.1c0.2,2.7,0.4,4.6,0.4,8.2c-2.2,0-4.3-0.1-5.5-0.2c-0.4,1.5-1.5,5.5-1.6,5.8c-0.3,0.9,0.3,1,0.6,1
		c2-0.3,4.1-0.5,6.1-0.5c0.2,3,0.2,6.2,0.2,10.6v13.8c0,11.1,5,14.5,12.8,14.5c2.9,0,5.2-0.4,10.6-1.8c0.6-2.3,1.1-4.1,1.7-6.1
		c0.3-1.2-0.6-1.3-1-1.1c-1.8,1-3.8,1.6-5.8,1.6c-6,0-6.7-5.1-6.7-12v-10.3c0-2.5,0.1-6.2,0.3-9.2h4c2.7,0,5.3,0.1,8,0.4
		c0.4-1.5,1.4-5.3,1.8-6.5C328.7,335.7,328.2,335.5,327.9,335.7z"></path><path class="st0" d="M422.2,350.9c0-10.3-3.6-16.2-14-16.2c-4.6,0-8.2,1.6-12.7,5.3l-3.7,3.1l0.3-7.9c-3.9,0.4-9.5,0.4-13.5,0.4
		c1.6,4.8,1.9,11.5,1.9,15.9v11.1c0.1,5.8-0.3,11.6-1.1,17.3c1.6-0.1,4.4-0.2,7.4-0.2c2.8,0,5.9,0.1,7.2,0.2
		c-1.3-3.9-1.8-9-1.8-17.3v-6.5c0-5.7,0.6-7.6,2.9-9.9c2-1.9,4.6-3,7.3-3c7.5,0,7.9,6.1,7.9,11.4v7.9c0.1,5.8-0.3,11.6-1.1,17.3
		c1.6-0.1,4.5-0.2,7.4-0.2c2.8,0,5.9,0.1,7.3,0.2c-1.3-3.9-1.8-9-1.8-17.3V350.9z"></path><path class="st0" d="M256.6,378.8c0.7-2.6,1-3.4,1.8-6.5c0.4-1.5-0.4-1.9-1.1-1.4c-2.7,2-5.9,3.1-9.3,2.9
		c-9.5,0-15.3-6.1-15.5-16.7c3-0.2,9.5-0.3,14.1-0.3H258c1.5,0,1.5-3.8,1.5-4.7c0-10.7-6.9-17.3-17.9-17.3
		c-12.8,0-21.6,9.6-21.6,23.5c0,13.7,8.8,23.1,22.5,23.1C247.4,381.3,252.1,380.4,256.6,378.8z M241,340c3.9,0,7,3.1,7.1,6.9
		c0,0.1,0,0.2,0,0.3c0,2.8-1.5,4-5.4,4.1l-10.3,0.3C232.9,344.3,235.3,340,241,340z"></path><path class="st0" d="M354,334.7c-16,0-24.5,10.2-24.5,24.3s8.2,22.4,22.3,22.4c14.8,0,24.3-9.6,24.3-24.6
		C376.1,342.8,368.1,334.7,354,334.7z M352.8,376.3c-6.8,0-10.6-6.6-10.6-19.1c0-10.7,2.9-17.4,10.3-17.4c7,0,10.9,6.7,10.9,19.2
		C363.4,370.4,359.7,376.3,352.8,376.3z"></path><path class="st0" d="M227.2,167.8c0,6.2,0.1,64.9,0.2,76.2c0,0.2,0,0.5-0.1,0.5c-1.8-0.3-3.8,0.9-3.8,4c0,4.8,0,7.5,0,12.2
		c0,1.1,0,4.4,0,4.8c0,3.8,3.9,5,3.9,5s85.1,30.4,87.9,31.5c4,1.5,7.7,2.8,11.2,4.2c1.2,0.5,1.2,1.1,1.3,3.2v4.3
		c0,0,2.2,0.1,3.3,0.1c8.2,0,7.2-4.2,7.4-16.7c0.3-13.2,0.3-17.2-3.5-18c-0.3-34.7,0.5-95.4,0.3-112.5c2.8-1.1,5.2-3.2,5.6-6.6
		c0.4-3.1-2.9-7.8-10.5-11.5L285.5,54c1.6-3.5-1.6-8-5.1-8c-3.5,0-6.2,4.5-4.6,8.1L231.2,149c-8.9,4.8-10.8,10.8-9,14.8
		C223.2,165.8,225.1,167.3,227.2,167.8z M247.8,272.2c0,0.4-0.3,0.6-0.7,0.4c-3.9-1.4-5.8-2-9.6-3.3c-0.4-0.1-0.7-0.5-0.7-0.9v-16.1
		c0-0.4,0.3-0.6,0.7-0.4c3.8,1.5,5.8,2.2,9.6,3.6c0.4,0.1,0.7,0.5,0.7,0.9V272.2z M263.9,277.9c0,0.4-0.3,0.6-0.7,0.4l-9.6-3.4
		c-0.4-0.1-0.7-0.5-0.7-0.9v-15.7c0-0.4,0.3-0.5,0.7-0.4c3.9,1.4,5.8,2.1,9.7,3.5c0.4,0.1,0.7,0.5,0.7,0.9
		C263.9,268.4,263.9,271.6,263.9,277.9z M280,283.7c0,0.3-0.2,0.5-0.4,0.5c-0.1,0-0.2,0-0.3-0.1l-9.6-3.4c-0.4-0.1-0.7-0.5-0.7-0.9
		c0-6.3,0-9.5,0-15.8c0-0.4,0.3-0.5,0.7-0.4c3.9,1.3,5.8,2,9.7,3.2c0.4,0.1,0.7,0.5,0.7,0.9C280,274,280,277.3,280,283.7z
		 M296.1,289.3L296.1,289.3c0,0.3-0.2,0.5-0.5,0.5c-0.1,0-0.2,0-0.2-0.1c-3.9-1.3-5.8-2-9.6-3.4c-0.4-0.1-0.7-0.5-0.7-0.9
		c0-6.4,0-9.7,0-16.1c0-0.4,0.3-0.6,0.7-0.5c3.9,1.2,5.8,1.8,9.6,3c0.4,0.1,0.7,0.5,0.7,0.9C296.1,279.5,296.1,282.9,296.1,289.3z
		 M312.2,294.9L312.2,294.9c0,0.4-0.3,0.6-0.7,0.4l-9.6-3.3c-0.4-0.1-0.7-0.5-0.7-0.9c0-6.4,0-9.9,0.1-16.6c0-0.3,0.2-0.5,0.5-0.5
		c0.1,0,0.2,0,0.2,0c3.8,1.2,5.8,1.8,9.6,2.9c0.4,0.1,0.7,0.6,0.7,1C312.2,284.9,312.2,288.4,312.2,294.9z M264.3,256.9L264.3,256.9
		c-19-6.6-27.6-10.1-27.8-15.6c-0.1-3.4-0.6-17.6-0.2-21.3l-0.3-53c0-1.6,2.5-2.5,4.9-3.1s16.3-3.7,39.7-3.7s39.8,2.8,44,4.5
		c1,0.3,1.9,0.8,2.7,1.3l0.1,4.6c-4-0.5-19.1-2.6-25.6-3.1c-3-0.2-6.9-0.3-10.7-0.4c0-0.4-0.2-0.8-0.4-1.1c-0.3-0.3-0.7-0.5-1.2-0.6
		c-6.5-0.3-13.1-0.3-19.6,0c-1,0-1.7,0.9-1.7,1.8l1.1,20.2l-0.9,0.1c-4.1,0.3-20.6,2.7-21.7,3c-1.5,0.4-1.9,0.8-1.7,1.4
		c0.2,0.9,1.4,0.6,2.6,0.5c8.2-0.9,15.6-1.4,21.9-1.7l0.2,3.2c0.1,0.9,0.8,1.6,1.7,1.6h0.1c5.5-0.3,10.9-0.3,16.4,0
		c0.9,0,1.7-0.7,1.8-1.6l0.2-3.2c2.6,0.1,4,0.3,4,0.3c11.8,1,27.2,3.3,33.8,7.3v4.8c-3.9-0.8-13.8-2.9-17.4-3.2
		c-2.5-0.3-5-0.3-7.5,0c-0.8,0.1-1.4,0.5-1.3,1.1c0.1,0.6,0.8,0.9,1.7,1c1,0.1,15.6,0.7,24.6,6.8l0.1,4.8c-5.2-1-22.3-4.3-34.2-4.9
		c-12.1-0.4-24.3,0.1-36.4,1.4c-1.5,0.2-2.3,0.7-2.2,1.5c0.1,0.8,0.4,1.2,2.5,1c1.5-0.1,29.8-1.1,44.6,1c12.1,1.8,20.4,3.8,25.8,6.4
		l0.1,6.1c-4.8-1-15.3-3-20.6-3.5c-11.1-0.9-18.2-0.8-19.4-0.8c-1.2,0-1.6,0.5-1.5,1.2c0.1,0.8,0.9,0.8,1.6,0.9
		c6.3,0.2,12.5,0.7,18.7,1.7c5.9,0.9,15.1,2.4,21.2,5.5l0.1,6.2c-3.2-0.4-9.5-1.1-12.1-1.1c-2.6-0.2-5.2-0.1-7.7,0.2
		c-0.7,0.2-1.1,0.7-1,1.1c0.2,0.5,0.7,0.9,1.3,0.8c3.4,0.1,6.8,0.5,10.1,1c3.3,0.5,6.5,1.5,9.5,2.9c0,0,0,6,0,8
		c0,0.2-6.8-2.1-13.6-2.6c-5.5-0.4-11.1-0.3-16.6,0.1c-0.4,0-1.7,0.3-1.7,1.4c0,1.1,1.4,1,2.1,1c3.5,0.1,6.4,0,12.5,0.6
		c8.9,0.9,17.3,3.8,17.3,3.9c0,2.5,0,4.7,0,7.6c0,0.1-3.8-1.1-9.8-1.9c-2.8-0.4-5.6-0.6-8.4-0.6c-1.1,0.1-2.1,0.3-2.2,1.3
		c-0.1,1.4,2.5,1.5,3.4,1.6s3.6,0.3,8.2,1c3,0.5,5.9,1.2,8.8,2.2c0,6.3,0,11.4,0,11.4C309.3,272.1,284.2,264.3,264.3,256.9z
		 M305.4,179.9L305.4,179.9c0.8,0,15.5,0.4,22,5.8l0.1,6.1c-8.2-2-16.5-3.4-24.9-4.2c-3-0.3-6-0.5-8.8-0.6l-3.8-0.1l0.9-17.2
		c4.4,0.3,8.9,0.7,12.9,1.3c6.4,0.8,18.3,3,23.5,5.1l0.1,4.4c-2.6-0.6-8-1.8-11.9-2.3c-3.3-0.5-6.6-0.7-9.9-0.5
		c-0.9,0.1-1.9,0.2-1.9,1.1C303.7,179.7,304.5,179.9,305.4,179.9z M287.3,169.9l-1.2,22.2c0,0-6.3-0.1-11.3,0l-1.3-22
		C273.6,170.1,282.1,169.6,287.3,169.9z M327.5,300.9c-3.8-1.4-5.8-2-9.6-3.4c-0.4-0.1-0.7-0.5-0.7-0.9c0-6.5,0-10.1,0-17.3
		c0-0.3,0.2-0.5,0.4-0.6c0.1,0,0.2,0,0.2,0l9.6,2.9c0.4,0.2,0.7,0.6,0.7,1l0,17.8C328.2,300.8,327.9,301,327.5,300.9z M281,64.5
		L281,64.5c1.5,3.2,3.2,6.8,5,10.5c-2.2,0.1-4.4,0.4-6.6,0.8c-1.1,0.2-1.4,0.7-1.4,1.1c0,0.4,0.5,0.9,1.7,1c2.5,0,6,0.2,7.8,0.3
		c0.5,1.1,1.1,2.3,1.6,3.4c-1.3,0.4-3.1,0.9-3.6,1.1c-0.8,0.3-1.7,0.6-1.6,1.2c0.1,0.6,0.9,0.6,1.6,0.7c1.7,0.2,3.4,0.3,5.2,0.3
		c0.9,1.9,1.5,3.3,2.5,5.3c0.6,1.2-1.1,1.5-2.6,1.6c-1.7,0.1-6.1,0.1-8.2,0.4c-0.8,0.1-1.1,0.5-1.1,1c0,0.5,0.6,0.8,1.4,0.9
		c2.9,0.1,5.8,0.4,8.6,0.9c1.6,0.3,3.1,0.7,4.6,1.2c0.6,1.2,1.1,2.4,1.7,3.6c0.3,0.7-0.6,1-1.3,1.1c-1.1,0.1-6.1-0.2-8.8,0
		c-1.2,0.1-1.4,0.4-1.4,1c0,0.4,0.2,0.7,1.4,0.9c2.1,0.3,6.4,0.5,7.8,0.8c1.6,0.3,3.3,0.7,4.8,1.4c0.9,2,1.5,3.2,2.4,5.1
		c0.4,0.8-0.1,1.1-0.6,1.1c-0.8,0.1-9.8,0.2-10.6,0.2c-0.9,0.1-2,0.3-2.1,1.1c-0.1,0.7,0.7,1.4,2.8,1.6c2.1,0.1,10,0.6,14.1,3.5
		c1.1,2.4,2.2,4.7,3.2,6.9c-3.1-0.3-13.8-1.2-18.7-1.1c-4.2,0.1-6,0-6.1,0.9s0.7,1.2,3.4,1.5c2.7,0.3,16.5,1.1,23.9,4
		c1.4,3.1,2.7,5.9,3.8,8.2c-6.1-1.2-12.2-1.9-18.4-2.3c-2.1,0-2.9,0.4-2.9,1.3s1.9,1,3.2,1.1c6.9,0.8,13.7,2.3,20.3,4.5
		c0.4,0.9,0.7,1.5,1,2.1c-12.4-2.6-30.2-3.8-38-3.8c-7.8,0-24.4,1.1-36.9,4.1C247.1,137.2,269.1,90,281,64.5z M233.2,154.2
		c3-1.3,25.2-6.1,47.2-6.3c22-0.2,43.1,4.6,49,8.4c1.5,1,2.6,3.1,1.7,4.7l0,0c-0.9,1.6-2.9,1-5,0c-2.1-1-18.3-6.8-45.7-6.8
		c-27.4,0-42.3,5.4-44.3,5.8c-2,0.5-4.7,2.1-6.2-0.8C228.9,157.3,230.2,155.5,233.2,154.2z"></path><path class="st0" d="M352.1,113.5c2.8,1.8,5.7,2.5,7.9,2c0,0,0,0,0,0c0,0,0,0,0,0c-1-2.8-2.9-5.1-5.5-6.6c-2.8-1.7-5.7-2.5-7.9-2
		c0,0,0,0,0,0.1c0,0,0,0,0,0C347.7,109.7,349.6,112,352.1,113.5z"></path><path class="st0" d="M355.2,97.5c0.5-3-0.1-6.1-1.5-8.8c-1.5-3.2-3.7-5.5-5.8-6.3c-0.4,3,0.1,6.1,1.5,8.8
		C351,94.4,353.2,96.6,355.2,97.5z"></path><path class="st0" d="M359.4,80.6C359.4,80.6,359.4,80.6,359.4,80.6c1.6-1.7,2.7-4.8,2.9-8.4s-0.7-6.8-2-8.7c0,0,0,0,0,0
		c0,0,0,0,0,0c-1.6,1.7-2.7,4.8-2.9,8.4C357.2,75.5,358,78.7,359.4,80.6C359.4,80.6,359.4,80.6,359.4,80.6z"></path><path class="st0" d="M402.6,135.6c1.9,2.1,4.5,3.4,7.4,3.7c0.7,0.1,1.4,0.2,2.1,0.2c2.1,0,4.1-0.7,5.9-1.9
		c-1.9-2.1-4.5-3.4-7.4-3.6c-0.7-0.1-1.4-0.2-2.1-0.2C406.4,133.8,404.4,134.5,402.6,135.6z"></path><path class="st0" d="M409.6,130.1C409.6,130.1,409.6,130.1,409.6,130.1c2-0.8,4.2-3.2,5.7-6.4c1.4-2.7,1.9-5.8,1.4-8.8c0,0,0,0,0,0
		c0,0,0,0,0,0c-2,0.9-4.2,3.2-5.7,6.4C409.6,124,409.1,127.1,409.6,130.1C409.6,130.1,409.6,130.1,409.6,130.1z"></path><path class="st0" d="M423.9,84.2c-0.1,2.3,0.4,4.5,1.3,6.6c0.4-0.3,0.7-0.8,1.1-1.2c0.8-1.1,1.5-2.5,2-4.2c0,0,0,0,0,0
		c0-0.1,0-0.1,0.1-0.2c0.2-0.7,0.4-1.5,0.5-2.3c0.1-0.9,0.2-1.8,0.2-2.6c0-2.5-0.4-4.8-1.3-6.3c-1.7,1.5-3.2,4.4-3.7,8
		C424,82.7,423.9,83.4,423.9,84.2z"></path><path class="st0" d="M418.5,117.3c1.7-1.5,3.1-4.5,3.7-8c0.1-0.4,0.1-0.8,0.1-1.1c0.3-3.1-0.2-5.9-1.3-7.8c-1.7,1.5-3.1,4.5-3.6,8
		c-0.1,0.8-0.2,1.5-0.2,2.3C417,113,417.5,115.2,418.5,117.3z"></path><path class="st0" d="M354.6,100.5C354.6,100.5,354.6,100.5,354.6,100.5c-2.1-2.8-4.6-4.5-6.8-4.9c0,0,0,0,0,0l0,0h0
		c0.1,3,1.2,5.9,3.1,8.3c0.8,1,1.6,1.9,2.5,2.7c1.2,1,2.3,1.7,3.5,2c0.3,0.1,0.6,0.2,0.8,0.2l0,0h0
		C357.6,105.8,356.5,102.9,354.6,100.5z"></path><path class="st0" d="M355.9,128.6c1.8,2.2,4.3,3.7,7.2,4.2c1,0.3,2.1,0.4,3.1,0.3c0.7,0,1.4-0.1,2-0.3c1-0.2,2-0.6,2.9-1.1
		c-0.2-0.3-0.5-0.5-0.7-0.8c-1.7-1.8-4-3-6.4-3.4C361.2,126.8,358.3,127.2,355.9,128.6z"></path><path class="st0" d="M357.7,123.8c2.8,1.8,5.7,2.5,7.9,2c0,0,0,0,0,0c0,0,0,0,0,0c-1-2.8-2.9-5.1-5.5-6.6c-2.8-1.8-5.7-2.5-7.9-2
		c0,0,0,0,0,0c0,0,0,0,0,0C353.2,119.9,355.1,122.3,357.7,123.8z"></path><path class="st0" d="M427.3,100.5c-1.9,2.4-3,5.3-3.1,8.3c0,0,0.1,0,0.1,0c0,0,0,0,0,0c2.2-0.4,4.7-2.1,6.8-4.9
		c1.9-2.4,2.9-5.3,3-8.3c0,0,0,0-0.1,0c0,0,0,0,0,0C431.9,96,429.4,97.8,427.3,100.5z"></path><path class="st0" d="M421.9,119.1c-2.5,1.5-4.4,3.8-5.5,6.6c0,0,0,0,0,0c0,0,0,0,0,0c2.1,0.5,5.1-0.2,7.9-2
		c2.5-1.5,4.4-3.8,5.5-6.6c0,0,0,0,0,0c0,0,0,0,0-0.1C427.6,116.7,424.7,117.3,421.9,119.1z"></path><path class="st0" d="M427.4,108.8c-2.5,1.5-4.4,3.9-5.5,6.6c0,0,0,0,0,0c0,0,0,0,0,0c2.1,0.5,5.1-0.2,7.9-2
		c2.5-1.5,4.4-3.8,5.5-6.6c0,0,0,0,0,0c0,0,0,0,0-0.1C433.2,106.4,430.2,107.1,427.4,108.8z"></path><path class="st0" d="M419.6,127.2c-0.5,0.1-1,0.1-1.5,0.2c-2.8,0.5-5.4,2-7.1,4.2c1.5,0.9,3.2,1.4,4.9,1.4c1,0,2.1-0.1,3.1-0.3
		c2.8-0.5,5.4-1.9,7.2-4.2C424.1,127.5,421.8,127,419.6,127.2z"></path><path class="st0" d="M426.7,97.5C426.7,97.5,426.7,97.5,426.7,97.5C426.8,97.5,426.8,97.5,426.7,97.5c2.1-0.8,4.3-3.1,5.8-6.3
		c1.4-2.7,1.9-5.8,1.5-8.8c0,0,0,0,0,0c0,0,0,0,0,0c-2,0.8-4.2,3.1-5.8,6.3C426.8,91.4,426.3,94.5,426.7,97.5z"></path><path class="st0" d="M419.1,87.8c-0.2-0.1-0.5-0.2-0.7-0.3c-0.2,2.7,0.4,5.5,1.8,7.8c1.5,2.7,3.6,4.6,5.5,5.3
		c0.3-2.7-0.4-5.5-1.8-7.8C422.6,90.4,420.8,88.6,419.1,87.8z"></path><path class="st0" d="M422.6,80.6C422.6,80.6,422.6,80.6,422.6,80.6C422.6,80.6,422.6,80.6,422.6,80.6c1.4-1.9,2.2-5.1,2-8.7
		c-0.2-3.6-1.3-6.7-2.9-8.4c0,0,0,0,0,0c0,0,0,0,0,0c-1.4,1.9-2.2,5.1-2,8.7C419.9,75.8,421.1,78.9,422.6,80.6z"></path><path class="st0" d="M414.5,77.3c-0.8-0.3-1.6-0.4-2.3-0.4c0,0,0,0,0,0c0,0,0,0,0,0c0.5,2.6,1.9,5,4,6.7c0,0,0,0,0,0c0,0,0,0,0,0
		c2.2,2,4.7,3.1,6.7,2.9c0,0,0,0,0,0l0,0h0c0,0,0,0,0,0c-0.5-2.6-2-5-4-6.7c-0.6-0.5-1.2-1-1.9-1.4C416.2,78,415.3,77.6,414.5,77.3z
		"></path><path class="st0" d="M410,67.4c0.1,0.4,0.2,0.7,0.3,1.1c0.4,1.1,0.9,2.1,1.5,3c0.5,0.7,1,1.4,1.5,2c0.5,0.6,1.1,1.2,1.6,1.6
		c1.1,0.9,2.2,1.6,3.3,1.9c0.1-3-0.7-6-2.4-8.6c-1.8-3-4.2-5-6.4-5.5c0,0.8,0,1.5,0.1,2.3S409.8,66.6,410,67.4z"></path><path class="st0" d="M402.5,134.3c2.4-1.7,4.2-4.2,5.1-7c0,0,0,0,0,0c0,0,0,0,0,0c-2.2-0.3-5,0.5-7.7,2.5c-2.4,1.7-4.2,4.2-5.1,7
		c0,0,0,0,0,0c0,0,0,0,0,0C396.9,137.1,399.8,136.3,402.5,134.3z"></path><path class="st0" d="M387.2,138.1c-2-0.5-4.1-0.5-6.1,0c-2.8,0.6-5.3,2.2-7,4.5c0.9,0.5,2,0.8,3,1c1.7,0.3,3.5,0.3,5.1-0.2
		c2.7-0.6,5.1-2.1,6.8-4.2c0.4,0.3,0.7,0.7,1.1,1c-3.4,2.1-6.4,4.9-8.8,8.1l2.6,4.1c0,0,0-0.1,0-0.1l0.1,0.1c1.7-4.1,4-8,7-11.4
		c3.1,3.4,5.6,7.2,7.4,11.4l0.1-0.1c0,0,0,0.1,0.1,0.1l2.6-4.1c-2.5-3.3-5.6-6.1-9.2-8.2c0.4-0.4,0.7-0.7,1.1-1
		c1.7,2.2,4.1,3.7,6.8,4.2c0.4,0.1,0.7,0.2,1.1,0.3c2.4,0.5,4.9,0.1,7-1c-1.7-2.3-4.2-3.9-7-4.5c-0.3-0.1-0.6-0.2-1-0.2
		c-2.1-0.4-4.3-0.3-6.3,0.5h-0.1l-0.2,0.1c-0.9,0.4-1.7,0.8-2.5,1.2c-0.9-0.5-1.8-0.9-2.7-1.3C387.8,138.2,387.5,138.1,387.2,138.1z
		"></path><path class="st0" d="M379.5,134.3c2.7,2,5.6,2.9,7.7,2.5c0,0,0,0,0,0c0,0,0,0,0,0c-0.8-2.8-2.6-5.3-5.1-7c-2.7-2-5.6-2.8-7.8-2.5
		c0,0,0,0,0,0c0,0,0,0,0,0C375.3,130.1,377,132.6,379.5,134.3z"></path><path class="st0" d="M371.4,134c-1.4,0.1-2.8,0.5-4,1.1s-2.4,1.5-3.3,2.5h0l0,0c1.2,0.8,2.5,1.3,3.8,1.6c0.7,0.1,1.4,0.2,2,0.2
		c0.7,0,1.4,0,2.1-0.2c1.1-0.1,2.1-0.3,3.1-0.7c1.6-0.6,3.1-1.6,4.3-2.9c-0.9-0.6-1.8-1-2.8-1.3c-1.3-0.4-2.7-0.6-4.1-0.5
		C372.1,133.8,371.8,133.9,371.4,134z"></path><path class="st0" d="M361.8,95.3c1.4-2.4,2-5.1,1.8-7.8c-1.9,0.6-3.9,2.5-5.5,5.3c-1.4,2.4-2,5.1-1.8,7.8
		C358.2,99.9,360.3,98,361.8,95.3z"></path><path class="st0" d="M363.5,117.3C363.5,117.3,363.5,117.3,363.5,117.3C363.5,117.3,363.5,117.3,363.5,117.3
		c1.2-2.1,1.7-5.3,1.1-8.9s-1.9-6.5-3.7-8c0,0,0,0,0,0c0,0,0,0,0,0c-1.2,2-1.7,5.4-1.1,8.9C360.4,112.8,361.8,115.8,363.5,117.3z"></path><path class="st0" d="M371.1,121.2c-1.5-3.2-3.7-5.5-5.7-6.4c-0.1,0.8-0.2,1.5-0.2,2.3c0,2.3,0.5,4.5,1.5,6.6
		c1.5,3.2,3.6,5.5,5.7,6.4c0.1-0.8,0.2-1.5,0.2-2.3C372.6,125.6,372.1,123.3,371.1,121.2z"></path><path class="st0" d="M370.1,71.5c1.7-2.5,2.5-5.5,2.4-8.6c-2.1,0.6-4.5,2.5-6.4,5.5c-1.7,2.5-2.5,5.5-2.4,8.6
		C365.8,76.4,368.3,74.5,370.1,71.5z"></path><path class="st0" d="M359.1,86.6C359.1,86.6,359.1,86.7,359.1,86.6c1.9,0.2,4.5-0.9,6.7-2.9c2-1.7,3.4-4.1,4-6.7c0,0,0,0,0,0
		c0,0,0,0,0,0c-0.6,0-1.4,0.1-2.1,0.3c-1.1,0.3-2.2,0.8-3.3,1.6c-0.5,0.3-0.9,0.7-1.4,1.1C361.1,81.7,359.7,84,359.1,86.6
		C359.1,86.6,359.1,86.6,359.1,86.6z"></path><path class="st0" d="M353.1,82.8c0.5,3.6,2,6.5,3.7,8c0.9-1.6,1.3-3.8,1.3-6.3c0-0.8-0.1-1.7-0.2-2.6c-0.1-0.8-0.3-1.6-0.5-2.3
		c0-0.1,0-0.1-0.1-0.2c0,0,0,0,0,0c-0.5-1.7-1.2-3.1-2-4.2c-0.3-0.5-0.7-0.9-1.1-1.2c-1,1.7-1.4,4.3-1.3,7.2
		C352.9,81.7,353,82.2,353.1,82.8z"></path></g></svg>